HIERARCHY
ROOT Hips
{
	OFFSET 0.00000 0.00000 0.00000
	CHANNELS 6 Xposition Yposition Zposition Yrotation Zrotation Xrotation 
	JOINT Lumbar
	{
		OFFSET 0 0 0
		CHANNELS 3 Zrotation Xrotation Yrotation
		JOINT Neck
		{
			OFFSET 0.00 0.2701 0.00
			CHANNELS 3 Zrotation Xrotation Yrotation
			End Site
			{
				OFFSET 0.00 0.1379 0.00
			}
		}
		JOINT RightShoulder
		{
			OFFSET 0.0119 0.2289 0.1181
			CHANNELS 3 Zrotation Xrotation Yrotation
			JOINT RightElbow
			{
				OFFSET 0.00 -0.1475 0.00
				CHANNELS 2 Zrotation Yrotation
				JOINT RightWrist
				{
					OFFSET 0.00 -0.1605 0.00
					CHANNELS 2 Zrotation Xrotation
					End Site
					{
						OFFSET 0.0040 -0.1068 0.0006
					}
				}
			}
		}
		JOINT LeftShoulder
		{
			OFFSET 0.0119 0.2289 -0.1181
			CHANNELS 3 Zrotation Xrotation Yrotation
			JOINT LeftElbow
			{
				OFFSET 0.00 -0.1475 0.00
				CHANNELS 2 Zrotation Yrotation
				JOINT LeftWrist
				{
					OFFSET 0.00 -0.1605 0.00
					CHANNELS 2 Zrotation Xrotation
					End Site
					{
						OFFSET 0.0040 -0.1068 -0.0006
					}
				}
			}
		}
	}
	JOINT RightHip
	{
		OFFSET 0.0316 -0.0424 0.0458
		CHANNELS 3 Zrotation Xrotation Yrotation
		JOINT RightKnee
		{
			OFFSET 0.00 -0.2438 0.00
			CHANNELS 1 Zrotation
			JOINT RightAnkle
			{
				OFFSET 0.00 -0.2449 0.00
				CHANNELS 3 Zrotation Xrotation Yrotation
				End Site
				{
					OFFSET 0.1237 -0.0542 0.0051
				}
			}
		}
	}
	JOINT LeftHip
	{
		OFFSET 0.0316 -0.0424 -0.0458
		CHANNELS 3 Zrotation Xrotation Yrotation
		JOINT LeftKnee
		{
			OFFSET 0.00 -0.2438 0.00
			CHANNELS 1 Zrotation
			JOINT LeftAnkle
			{
				OFFSET 0.00 -0.2449 0.00
				CHANNELS 3 Zrotation Xrotation Yrotation
				End Site
				{
					OFFSET 0.1237 -0.0542 -0.0051
				}
			}
		}
	}
}
MOTION
Frames: 11
Frame Time: 0.02
-0.09801 0.59496 0.78258 727.46378 0 -6.41969 -1.6729 1.18447 -7.41526 -34.85948 4.70141 3.78491 44.7039 -34.2736 31.4212 134.30131 133.88161 -75.22897 -21.88565 29.31947 8.75103 -7.30605 18.2969 -81.30485 -13.64058 2.88295 11.53898 5.96791 1.95928 -17.36215 -5.20417 -2.1423 -4.16457 8.19264 6.73442 -7.56464 -48.12211 4.12961 -1.35357 -8.47784
-0.09333 0.59572 0.78518 727.75368 0 -6.27395 -1.71147 1.17008 -7.17714 -34.92512 4.57436 3.8273 45.17796 -34.3257 31.54651 134.30131 133.58368 -75.23014 -21.88888 29.14976 8.71509 -6.69647 18.29099 -81.16464 -13.54633 2.99599 10.78916 6.08215 2.01175 -16.83055 -4.97421 -2.20804 -4.35659 9.94166 6.90413 -7.05485 -50.92709 2.73206 -1.12586 -8.48147
-0.08907 0.59641 0.78746 727.95654 0 -6.0703 -1.78499 1.08584 -7.14957 -35.21796 4.65725 4.06875 46.4891 -34.6531 32.16344 134.3013 132.89171 -75.22858 -21.88623 29.09167 8.32868 -5.69414 18.31176 -81.19885 -13.41085 3.28176 10.07606 6.13741 2.19625 -16.27025 -4.77043 -2.27592 -4.55114 11.63621 6.94252 -6.55051 -53.44372 1.45204 -0.82815 -8.14769
-0.08465 0.59713 0.78986 728.19815 0 -5.8936 -1.843 1.03563 -7.02433 -35.41225 4.64248 4.21713 47.42109 -34.84251 32.5663 134.30131 132.37242 -75.22858 -21.88171 28.9906 8.10584 -4.88882 18.31494 -81.14811 -13.29155 3.4757 9.34457 6.21697 2.31374 -15.71569 -4.55927 -2.34092 -4.74299 13.32939 7.03861 -6.03742 -56.0028 0.16671 -0.5587 -7.9275
-0.08014 0.59785 0.79238 728.44193 0 -5.71379 -1.9004 0.97619 -6.89636 -35.58047 4.62911 4.37052 48.32558 -35.07879 32.92085 134.30131 131.87936 -75.23432 -21.90383 28.85576 7.87589 -4.01841 18.34514 -81.12072 -13.18822 3.72181 8.61512 6.30668 2.46241 -15.17987 -4.33083 -2.41411 -4.94218 15.14811 7.14415 -5.54223 -58.96012 -1.33142 -0.29811 -7.87064
-0.07589 0.59856 0.79456 728.66177 0 -5.5277 -1.96722 0.92009 -6.82858 -35.85749 4.66618 4.56339 49.49164 -35.28659 33.49219 134.3013 131.24758 -75.21854 -21.85969 28.81713 7.5734 -3.18622 18.32354 -81.08655 -13.03983 3.90253 7.892 6.36195 2.5768 -14.60272 -4.14376 -2.47074 -5.1266 16.68374 7.19905 -5.01511 -61.00046 -2.35739 -0.00612 -7.40228
-0.07224 0.59925 0.79592 728.8275 0 -5.32837 -2.0489 0.8796 -6.87273 -36.40286 4.78641 4.81224 51.21299 -35.33714 34.59136 134.30133 130.21232 -75.22137 -21.71751 29.0307 7.15498 -2.54347 18.15704 -80.98882 -12.77761 3.85179 7.17907 6.32975 2.56452 -13.92035 -4.06614 -2.48082 -5.26637 17.48481 7.13806 -4.38762 -60.69772 -2.07402 0.37162 -5.79232
-0.06883 0.59991 0.79693 728.9742 0 -5.1266 -2.13921 0.84666 -6.97228 -37.04707 4.952 5.09533 53.16532 -35.35225 35.8843 134.30127 129.06932 -75.18895 -21.49565 29.33549 6.67453 -1.9528 17.93641 -80.87875 -12.47095 3.73127 6.47176 6.26617 2.51236 -13.19904 -4.02856 -2.47426 -5.39134 17.99453 7.03175 -3.72998 -59.45798 -1.324 0.7748 -3.79583
-0.06532 0.60056 0.79808 729.13542 0 -4.93242 -2.22703 0.81707 -7.04975 -37.63129 5.10121 5.36663 54.99071 -35.3923 37.05814 134.30129 128.05364 -75.1209 -21.25253 29.58914 6.22149 -1.34446 17.73667 -80.77577 -12.18319 3.64892 5.76144 6.22142 2.47874 -12.49578 -3.97153 -2.47545 -5.52549 18.61411 6.95152 -3.09557 -58.56788 -0.80845 1.15512 -2.03333
-0.0618 0.6013 0.79931 729.26769 0 -4.70861 -2.30984 0.75648 -7.12111 -38.28525 5.24029 5.62976 56.93742 -35.40582 38.38038 134.30141 126.70251 -75.26759 -21.2421 29.8855 5.7588 -0.69809 17.55242 -80.67247 -11.8983 3.54561 5.05391 6.15535 2.45024 -11.78877 -3.92135 -2.47572 -5.65068 19.3284 6.84428 -2.42487 -57.99021 -0.19495 1.5859 -0.01263
-0.05835 0.60186 0.80028 729.45826 0 -4.547 -2.40496 0.7631 -7.21587 -38.81659 5.40782 5.91436 58.67569 -35.46101 39.43262 134.30097 126.01838 -74.96276 -20.74035 30.11565 5.30717 -0.14745 17.32415 -80.56483 -11.59897 3.46673 4.34183 6.12696 2.39706 -11.08203 -3.86532 -2.4742 -5.78938 19.77539 6.78341 -1.81766 -56.5422 0.32448 1.91641 1.55738
